<mxfile host="app.diagrams.net" agent="Mozilla/5.0 (Windows NT 10.0; Win64; x64) AppleWebKit/537.36 (KHTML, like Gecko) Chrome/127.0.0.0 Safari/537.36" version="24.7.5">
  <diagram name="第 1 页" id="3X6jp6eNawYo9fJGv3U1">
    <mxGraphModel dx="2314" dy="1098" grid="1" gridSize="10" guides="1" tooltips="1" connect="1" arrows="1" fold="1" page="1" pageScale="1" pageWidth="827" pageHeight="1169" math="0" shadow="0">
      <root>
        <mxCell id="0" />
        <mxCell id="1" parent="0" />
        <mxCell id="gBoygpQVNC8fyseXzkyH-1" value="Pool" style="swimlane;childLayout=stackLayout;resizeParent=1;resizeParentMax=0;startSize=20;horizontal=0;horizontalStack=1;" vertex="1" parent="1">
          <mxGeometry x="200" y="300" width="1140" height="480" as="geometry" />
        </mxCell>
        <mxCell id="gBoygpQVNC8fyseXzkyH-2" value="业务" style="swimlane;startSize=20;" vertex="1" parent="gBoygpQVNC8fyseXzkyH-1">
          <mxGeometry x="20" width="250" height="480" as="geometry" />
        </mxCell>
        <mxCell id="gBoygpQVNC8fyseXzkyH-3" value="业务群机器人" style="swimlane;startSize=20;" vertex="1" parent="gBoygpQVNC8fyseXzkyH-1">
          <mxGeometry x="270" width="210" height="480" as="geometry" />
        </mxCell>
        <mxCell id="gBoygpQVNC8fyseXzkyH-4" value="效能平台" style="swimlane;startSize=20;" vertex="1" parent="gBoygpQVNC8fyseXzkyH-1">
          <mxGeometry x="480" width="330" height="480" as="geometry" />
        </mxCell>
        <mxCell id="gBoygpQVNC8fyseXzkyH-10" value="值班群机器人" style="swimlane;startSize=20;" vertex="1" parent="gBoygpQVNC8fyseXzkyH-1">
          <mxGeometry x="810" width="330" height="480" as="geometry" />
        </mxCell>
      </root>
    </mxGraphModel>
  </diagram>
</mxfile>
